HIERARCHY
ROOT Hips
{
	OFFSET 0.000000 0.000000 0.000000 
	CHANNELS 6 Xposition Yposition Zposition Yrotation Zrotation Xrotation 
	JOINT Lumbar
	{
		OFFSET 0.000000 0.000000 0.000000 
		CHANNELS 3 Zrotation Xrotation Yrotation
		JOINT Neck
		{
			OFFSET 0.000000 0.445665 0.000000 
			CHANNELS 3 Zrotation Xrotation Yrotation
			End Site
			{
				OFFSET 0.000000 0.227535 0.000000 
			}
		}
		JOINT RightShoulder
		{
			OFFSET 0.019635 0.377685 0.194865 
			CHANNELS 3 Zrotation Xrotation Yrotation
			JOINT RightElbow
			{
				OFFSET 0.000000 -0.243375 0.000000 
				CHANNELS 2 Zrotation Yrotation
				JOINT RightWrist
				{
					OFFSET 0.000000 -0.264825 0.000000 
					CHANNELS 2 Zrotation Xrotation
					End Site
					{
						OFFSET 0.006600 -0.176220 0.000990 
					}
				}
			}
		}
		JOINT LeftShoulder
		{
			OFFSET 0.019635 0.377685 -0.194865 
			CHANNELS 3 Zrotation Xrotation Yrotation
			JOINT LeftElbow
			{
				OFFSET 0.000000 -0.243375 0.000000 
				CHANNELS 2 Zrotation Yrotation
				JOINT LeftWrist
				{
					OFFSET 0.000000 -0.264825 0.000000 
					CHANNELS 2 Zrotation Xrotation
					End Site
					{
						OFFSET 0.006600 -0.176220 -0.000990 
					}
				}
			}
		}
	}
	JOINT RightHip
	{
		OFFSET 0.052140 -0.069960 0.075570 
		CHANNELS 3 Zrotation Xrotation Yrotation
		JOINT RightKnee
		{
			OFFSET 0.000000 -0.402270 0.000000 
			CHANNELS 1 Zrotation
			JOINT RightAnkle
			{
				OFFSET 0.000000 -0.404085 0.000000 
				CHANNELS 3 Zrotation Xrotation Yrotation
				End Site
				{
					OFFSET 0.204105 -0.089430 0.008415 
				}
			}
		}
	}
	JOINT LeftHip
	{
		OFFSET 0.052140 -0.069960 -0.075570 
		CHANNELS 3 Zrotation Xrotation Yrotation
		JOINT LeftKnee
		{
			OFFSET 0.000000 -0.402270 0.000000 
			CHANNELS 1 Zrotation
			JOINT LeftAnkle
			{
				OFFSET 0.000000 -0.404085 0.000000 
				CHANNELS 3 Zrotation Xrotation Yrotation
				End Site
				{
					OFFSET 0.204105 -0.089430 -0.008415 
				}
			}
		}
	}
}
MOTION
Frames: 19
Frame Time: 0.02
-0.02094 0.02518 1.34371 359.43162 -29.11482 -8.8428 35.71841 0.21725 -3.69432 -16.49119 19.49532 -0.83042 -10.07078 -29.29629 38.10483 75.40466 89.46868 3.84082 0.62376 -21.33126 26.37756 -10.03764 47.35132 -77.8039 -4.48901 -1.7613 47.87836 7.94123 -15.71382 -28.03743 1.97791 0.97378 0.98365 29.80576 20.88468 -9.38527 -26.95185 -7.34321 0.79717 1.01952
-0.01438 0.02624 1.34987 360.71156 -29.32978 -8.79145 35.75288 0.22603 -3.4967 -16.49593 19.27652 -0.83042 -10.36178 -29.97635 37.26118 79.58318 88.90951 3.50933 0.54883 -21.95157 26.69928 -9.76175 47.20173 -78.85308 -3.85046 -1.75226 47.18041 8.17921 -16.54638 -27.13371 0.54625 0.59048 0.62294 31.75099 21.24619 -10.1291 -29.25757 -7.74176 0.5928 0.92077
-0.00858 0.02734 1.35564 362.04877 -29.58376 -8.7308 35.81246 0.23123 -3.4189 -16.54844 19.01138 -0.83042 -10.26953 -30.60322 36.46734 84.38603 88.46964 3.2708 0.47091 -22.55356 27.04518 -9.73061 47.30691 -80.66879 -2.79648 -1.76551 46.50609 8.40753 -17.41339 -26.07946 -1.87778 -0.01622 0.03582 34.13314 21.56656 -10.77662 -31.95027 -8.20753 0.36058 0.80892
-0.00247 0.02842 1.36155 363.35684 -29.81708 -8.67141 35.85579 0.23448 -3.26868 -16.57823 18.7833 -0.83042 -10.30734 -31.24525 35.64383 88.88722 88.00258 3.01829 0.39331 -23.14971 27.35032 -9.55125 47.30776 -82.43202 -1.82976 -1.81282 45.82283 8.64063 -18.24098 -25.09727 -3.76772 -0.50345 -0.43012 36.28979 21.88595 -11.46017 -34.42653 -8.63045 0.15354 0.70951
0.0038 0.02951 1.36766 364.67761 -30.0643 -8.62544 35.91705 0.25478 -3.18468 -16.60757 18.49148 -0.83042 -10.54561 -31.92618 34.83541 93.50211 87.40981 2.63717 0.31972 -23.80578 27.77843 -9.5196 47.27268 -83.02671 -1.26531 -1.68575 45.12798 8.87272 -19.17507 -24.09698 -5.98847 -1.06289 -0.96936 38.57446 22.28831 -12.18238 -37.09593 -9.10589 -0.10674 0.58252
0.00956 0.03058 1.37324 365.98796 -30.29185 -8.54881 35.94841 0.23795 -2.99699 -16.6503 18.31869 -0.83042 -10.26692 -32.51262 34.01303 98.00841 87.10713 2.5483 0.23659 -24.33144 27.96082 -9.25163 47.3678 -86.13288 0.20032 -1.91177 44.46648 9.10344 -19.89288 -23.10201 -7.76528 -1.52738 -1.41191 40.68854 22.50869 -12.79907 -39.43669 -9.4883 -0.26267 0.50992
0.01413 0.0316 1.37755 367.22793 -30.44781 -8.39175 35.88466 0.11974 -2.46798 -16.72722 18.50138 -0.83043 -8.6917 -32.85659 33.13963 102.12794 87.63311 3.25877 0.1358 -24.51622 27.41163 -8.14406 47.76481 -96.91358 4.37079 -3.24295 43.86616 9.34399 -20.00896 -22.13045 -8.05213 -1.66188 -1.52326 42.25121 22.22981 -13.14424 -40.89494 -9.59009 -0.12338 0.59067
0.01821 0.0326 1.38133 368.46045 -30.58364 -8.20381 35.79136 -0.03596 -1.83626 -16.81519 18.80218 -0.83043 -6.6021 -33.10584 32.25267 106.09907 88.43906 4.25825 0.02426 -24.56783 26.6214 -6.81065 48.28135 -110.03507 9.37895 -4.90529 43.30368 9.58125 -19.90517 -21.17513 -7.8645 -1.69578 -1.53153 43.62002 21.77072 -13.38529 -41.98418 -9.59741 0.12148 0.72643
0.02249 0.0336 1.3853 369.71396 -30.73354 -8.02852 35.71616 -0.17509 -1.26954 -16.89293 19.03846 -0.83043 -4.72058 -33.39531 31.37409 110.09136 89.08158 5.11787 -0.08755 -24.67086 25.97413 -5.66728 48.73852 -121.46193 13.79018 -6.32468 42.74039 9.81293 -19.89793 -20.2303 -7.91068 -1.78479 -1.59329 45.05906 21.39814 -13.67689 -43.16378 -9.6522 0.31844 0.83735
0.02684 0.03467 1.38948 370.89453 -30.86447 -7.85832 35.62234 -0.31277 -0.62981 -16.99384 19.31911 -0.83043 -2.92961 -33.69646 30.48734 114.30448 89.87941 6.01904 -0.17808 -24.81154 25.19279 -4.17536 49.22662 -135.52836 19.1119 -8.12737 42.10808 10.07494 -19.904 -19.20305 -7.91449 -1.84233 -1.63508 46.59088 21.00337 -13.95596 -44.68801 -9.68902 0.51582 0.948
0.03094 0.03557 1.39308 372.22534 -31.02912 -7.67083 35.55964 -0.46181 -0.11586 -17.04899 19.53581 -0.83043 -0.83875 -33.9495 29.61417 118.01031 90.42047 6.89795 -0.31497 -24.84255 24.62545 -3.3377 49.6747 -144.70611 22.75189 -9.21983 41.62899 10.27214 -19.83245 -18.35542 -7.88088 -1.93808 -1.69077 47.87532 20.61418 -14.23218 -45.39616 -9.74144 0.73559 1.07136
0.0345 0.03603 1.39532 373.96477 -31.29574 -7.4389 35.59299 -0.63743 0.02301 -16.97098 19.54883 -0.83043 2.00333 -34.1098 28.77993 120.37846 90.16941 7.67173 -0.5807 -24.60253 24.77512 -4.4904 49.98646 -139.25822 21.35671 -8.1852 41.55733 10.29961 -19.5746 -17.98302 -7.85716 -2.16782 -1.81148 48.54063 20.27085 -14.55856 -43.98478 -9.84996 1.00155 1.22115
0.03781 0.03631 1.39697 375.85638 -31.596 -7.19159 35.65803 -0.8223 0.03308 -16.84715 19.49344 -0.83043 5.11776 -34.222 27.96065 122.23218 89.6527 8.40749 -0.89165 -24.25734 25.13679 -6.2854 50.25183 -128.90627 18.27157 -6.43978 41.63972 10.26054 -19.24991 -17.79499 -7.80776 -2.43768 -1.94837 48.95777 19.94218 -14.87028 -41.7544 -9.98096 1.27878 1.3778
0.0412 0.03666 1.39884 377.68392 -31.87814 -6.95399 35.70654 -1.00014 0.10409 -16.74668 19.46828 -0.83044 8.07431 -34.34545 27.13472 124.30154 89.26631 9.14263 -1.18013 -23.96045 25.35604 -7.6992 50.53491 -121.16236 16.08194 -5.07573 41.65553 10.24637 -18.97371 -17.53393 -7.76703 -2.6855 -2.07578 49.47615 19.61583 -15.18021 -39.86876 -10.10545 1.5517 1.53226
0.04472 0.03704 1.40091 379.49175 -32.17176 -6.70332 35.763 -1.1915 0.16738 -16.63564 19.45031 -0.83044 11.19574 -34.51058 26.30498 126.4459 88.84827 9.96404 -1.47874 -23.65528 25.75744 -9.47697 50.8367 -111.91087 13.3889 -3.47823 41.65784 10.25427 -18.61721 -17.22673 -7.723 -2.94594 -2.20867 50.03909 19.24489 -15.56218 -38.08771 -10.20294 1.84883 1.69784
0.0479 0.03732 1.40241 381.37436 -32.44947 -6.47725 35.81084 -1.35607 0.21618 -16.53591 19.40024 -0.83044 14.02829 -34.57845 25.49036 128.3098 88.43063 10.59229 -1.76475 -23.34596 25.83791 -10.65876 51.08673 -104.58938 11.32535 -2.19221 41.72482 10.20087 -18.41014 -17.06072 -7.68586 -3.19101 -2.33534 50.44985 18.97312 -15.74176 -35.89749 -10.37339 2.06677 1.82469
0.05025 0.03739 1.40254 383.44727 -32.67709 -6.31809 35.82708 -1.4469 0.24468 -16.47564 19.2724 -0.83044 16.02059 -34.39249 24.68357 129.55767 88.06666 10.70092 -2.02333 -23.0361 24.93818 -9.97906 51.20508 -103.92179 11.47014 -1.95432 41.92835 9.99043 -18.67582 -17.22749 -7.67423 -3.38285 -2.44056 50.52769 18.968 -15.81348 -32.79698 -10.64751 2.3331 1.99059
0.05225 0.03737 1.40208 385.58587 -32.88722 -6.18544 35.83374 -1.50976 0.26467 -16.42888 19.11522 -0.83044 17.70436 -34.11054 23.89669 130.53555 87.71295 10.61448 -2.26453 -22.72935 23.71692 -8.68815 51.27179 -105.33703 12.29422 -2.05117 42.19217 9.72116 -19.08817 -17.53243 -7.67261 -3.55836 -2.53943 50.4581 19.06325 -15.61119 -29.31478 -11.00792 2.47767 2.09435
0.05438 0.03738 1.40183 387.68114 -33.1041 -6.04373 35.84492 -1.58361 0.29585 -16.37774 18.97464 -0.83044 19.51258 -33.87065 23.12127 131.61647 87.36155 10.61258 -2.50108 -22.43125 22.67213 -7.71831 51.36225 -105.69692 12.76302 -1.9825 42.43115 9.48173 -19.40439 -17.7816 -7.66866 -3.74266 -2.64205 50.43797 19.11647 -15.22597 -25.99204 -11.39497 2.48874 2.12319
